<svg width="23" height="23" viewBox="0 0 23 23" fill="none" xmlns="http://www.w3.org/2000/svg">
  <path opacity="0.1" fill-rule="evenodd" clip-rule="evenodd" d="M0 11.1371C0 4.98625 4.98625 0 11.1371 0C17.288 0 22.2742 4.98625 22.2742 11.1371C22.2742 17.288 17.288 22.2742 11.1371 22.2742C4.98625 22.2742 0 17.288 0 11.1371Z" fill="white" />
  <path fill-rule="evenodd" clip-rule="evenodd" d="M11.1376 5.19733C9.52445 5.19733 9.322 5.20438 8.68842 5.23321C8.05607 5.26217 7.62444 5.36228 7.24676 5.50917C6.85609 5.66088 6.5247 5.86383 6.19454 6.19411C5.86414 6.52427 5.66119 6.85566 5.50898 7.24621C5.36173 7.624 5.26149 8.05576 5.23303 8.68786C5.20469 9.32144 5.19727 9.52402 5.19727 11.1372C5.19727 12.7503 5.20444 12.9522 5.23315 13.5858C5.26223 14.2181 5.36234 14.6497 5.50911 15.0274C5.66095 15.4181 5.86389 15.7495 6.19417 16.0796C6.5242 16.41 6.8556 16.6135 7.24602 16.7652C7.62394 16.9121 8.0557 17.0122 8.68792 17.0411C9.3215 17.07 9.52383 17.077 11.1369 17.077C12.7502 17.077 12.952 17.07 13.5856 17.0411C14.2179 17.0122 14.6501 16.9121 15.028 16.7652C15.4185 16.6135 15.7494 16.41 16.0795 16.0796C16.4099 15.7495 16.6128 15.4181 16.765 15.0275C16.911 14.6497 17.0113 14.218 17.041 13.5859C17.0694 12.9523 17.0769 12.7503 17.0769 11.1372C17.0769 9.52402 17.0694 9.32157 17.041 8.68798C17.0113 8.05563 16.911 7.624 16.765 7.24633C16.6128 6.85566 16.4099 6.52427 16.0795 6.19411C15.749 5.8637 15.4186 5.66076 15.0276 5.50917C14.6489 5.36228 14.2171 5.26217 13.5847 5.23321C12.9511 5.20438 12.7494 5.19733 11.1358 5.19733H11.1376ZM10.6047 6.26772C10.7629 6.26747 10.9393 6.26772 11.1376 6.26772C12.7235 6.26772 12.9115 6.27341 13.5378 6.30188C14.1169 6.32836 14.4312 6.42513 14.6406 6.50643C14.9178 6.61409 15.1154 6.74279 15.3232 6.95068C15.5311 7.15858 15.6598 7.35657 15.7677 7.63376C15.849 7.8429 15.9459 8.15721 15.9723 8.73635C16.0007 9.36251 16.0069 9.55061 16.0069 11.1358C16.0069 12.721 16.0007 12.9091 15.9723 13.5353C15.9458 14.1144 15.849 14.4287 15.7677 14.6378C15.66 14.915 15.5311 15.1124 15.3232 15.3202C15.1153 15.5281 14.9179 15.6568 14.6406 15.7644C14.4315 15.8461 14.1169 15.9426 13.5378 15.9691C12.9116 15.9976 12.7235 16.0038 11.1376 16.0038C9.55153 16.0038 9.36355 15.9976 8.73739 15.9691C8.15826 15.9424 7.84394 15.8456 7.63444 15.7643C7.35724 15.6567 7.15925 15.528 6.95135 15.3201C6.74346 15.1122 6.61476 14.9147 6.50685 14.6373C6.42555 14.4282 6.32866 14.1139 6.3023 13.5348C6.27384 12.9086 6.26815 12.7205 6.26815 11.1343C6.26815 9.54813 6.27384 9.36102 6.3023 8.73486C6.32878 8.15573 6.42555 7.84141 6.50685 7.63203C6.61451 7.35484 6.74346 7.15684 6.95135 6.94895C7.15925 6.74105 7.35724 6.61236 7.63444 6.50445C7.84382 6.42278 8.15826 6.32625 8.73739 6.29965C9.28535 6.2749 9.49769 6.26747 10.6047 6.26624V6.26772ZM14.3082 7.25399C13.9147 7.25399 13.5955 7.57288 13.5955 7.96652C13.5955 8.36004 13.9147 8.6793 14.3082 8.6793C14.7018 8.6793 15.021 8.36004 15.021 7.96652C15.021 7.57301 14.7018 7.25399 14.3082 7.25399ZM11.1376 8.0868C9.45306 8.0868 8.08726 9.4526 8.08726 11.1372C8.08726 12.8217 9.45306 14.1869 11.1376 14.1869C12.8222 14.1869 14.1875 12.8217 14.1875 11.1372C14.1875 9.4526 12.8222 8.0868 11.1376 8.0868ZM11.1376 9.15721C12.231 9.15721 13.1176 10.0436 13.1176 11.1372C13.1176 12.2306 12.231 13.1171 11.1376 13.1171C10.0441 13.1171 9.15765 12.2306 9.15765 11.1372C9.15765 10.0436 10.0441 9.15721 11.1376 9.15721Z" fill="white" />
</svg>