<svg width="23" height="23" viewBox="0 0 23 23" fill="none" xmlns="http://www.w3.org/2000/svg">
  <path opacity="0.1" fill-rule="evenodd" clip-rule="evenodd" d="M0 11.1371C0 4.98625 4.98625 0 11.1371 0C17.288 0 22.2742 4.98625 22.2742 11.1371C22.2742 17.288 17.288 22.2742 11.1371 22.2742C4.98625 22.2742 0 17.288 0 11.1371Z" fill="white" />
  <path fill-rule="evenodd" clip-rule="evenodd" d="M10.8036 9.05237L10.827 9.43774L10.4375 9.39055C9.01965 9.20966 7.78101 8.59622 6.72934 7.56594L6.21519 7.05474L6.08276 7.43224C5.80231 8.27376 5.98148 9.16247 6.56575 9.76019C6.87735 10.0905 6.80724 10.1377 6.26972 9.94108C6.08276 9.87816 5.91916 9.83097 5.90358 9.85456C5.84905 9.90962 6.03601 10.6253 6.18403 10.9084C6.38657 11.3017 6.79945 11.687 7.25128 11.9151L7.633 12.096L7.18117 12.1039C6.74492 12.1039 6.72934 12.1117 6.77608 12.2769C6.93188 12.7881 7.54731 13.3308 8.23284 13.5667L8.71584 13.7319L8.29517 13.9835C7.67195 14.3453 6.93967 14.5498 6.2074 14.5655C5.85684 14.5734 5.5686 14.6048 5.5686 14.6284C5.5686 14.7071 6.51901 15.1475 7.07211 15.3205C8.73142 15.8317 10.7023 15.6115 12.1825 14.7385C13.2341 14.1172 14.2858 12.8825 14.7766 11.687C15.0415 11.05 15.3063 9.88602 15.3063 9.32763C15.3063 8.96586 15.3297 8.91867 15.7659 8.48611C16.023 8.23444 16.2645 7.95918 16.3113 7.88053C16.3892 7.7311 16.3814 7.7311 15.9841 7.8648C15.3219 8.10074 15.2284 8.06928 15.5556 7.71537C15.7971 7.4637 16.0853 7.00755 16.0853 6.87385C16.0853 6.85026 15.9685 6.88958 15.8361 6.96036C15.6958 7.03901 15.3842 7.15698 15.1505 7.22776L14.7299 7.36146L14.3481 7.10193C14.1378 6.96036 13.8418 6.80307 13.686 6.75588C13.2887 6.64578 12.681 6.66151 12.3227 6.78734C11.3489 7.14125 10.7335 8.05355 10.8036 9.05237Z" fill="white" />
</svg>