<svg width="23" height="23" viewBox="0 0 23 23" fill="none" xmlns="http://www.w3.org/2000/svg">
  <path opacity="0.1" fill-rule="evenodd" clip-rule="evenodd" d="M0 11.1371C0 4.98625 4.98625 0 11.1371 0C17.288 0 22.2742 4.98625 22.2742 11.1371C22.2742 17.288 17.288 22.2742 11.1371 22.2742C4.98625 22.2742 0 17.288 0 11.1371Z" fill="white" />
  <path fill-rule="evenodd" clip-rule="evenodd" d="M17.0769 11.1289C17.0769 11.5306 17.036 11.9317 16.9556 12.3227C16.8773 12.7045 16.7613 13.0792 16.6093 13.4375C16.4608 13.7894 16.2766 14.1285 16.0614 14.4448C15.8494 14.7591 15.6052 15.0539 15.3369 15.3227C15.068 15.5903 14.7722 15.8338 14.4581 16.0467C14.1408 16.2605 13.8011 16.4444 13.449 16.5936C13.0902 16.7447 12.7146 16.8606 12.3332 16.9388C11.9417 17.0193 11.5391 17.0604 11.1368 17.0604C10.7342 17.0604 10.3316 17.0193 9.94066 16.9388C9.55868 16.8606 9.18307 16.7447 8.82457 16.5936C8.47246 16.4444 8.13252 16.2605 7.81521 16.0467C7.5011 15.8339 7.20525 15.5903 6.93696 15.3227C6.66839 15.0539 6.42416 14.7591 6.21185 14.4448C5.9978 14.1285 5.81332 13.7894 5.66424 13.4375C5.51224 13.0792 5.39595 12.7044 5.31735 12.3227C5.23788 11.9317 5.19727 11.5306 5.19727 11.1289C5.19727 10.7269 5.23786 10.3249 5.31737 9.93473C5.39597 9.553 5.51227 9.17765 5.66427 8.81997C5.81334 8.4678 5.99782 8.12836 6.21187 7.81208C6.42418 7.49755 6.66841 7.20328 6.93698 6.93421C7.20528 6.66658 7.50112 6.42361 7.81524 6.21103C8.13254 5.9964 8.47248 5.81251 8.82459 5.66305C9.18309 5.51155 9.55868 5.39542 9.94068 5.31781C10.3317 5.23788 10.7342 5.19733 11.1368 5.19733C11.5391 5.19733 11.9417 5.23788 12.3332 5.31781C12.7146 5.39545 13.0902 5.51157 13.449 5.66305C13.8011 5.81249 14.1408 5.9964 14.4581 6.21103C14.7722 6.42361 15.0681 6.66658 15.3369 6.93421C15.6052 7.20328 15.8494 7.49755 16.0615 7.81208C16.2766 8.12836 16.4608 8.46782 16.6093 8.81997C16.7613 9.17765 16.8773 9.553 16.9556 9.93473C17.036 10.3249 17.0769 10.7269 17.0769 11.1289ZM8.97246 6.54727C7.5579 7.21429 6.50214 8.51587 6.17294 10.0845C6.30666 10.0856 8.4205 10.1123 10.856 9.46612C9.97804 7.9085 9.04004 6.63737 8.97246 6.54727ZM11.2763 10.2461C8.66443 11.0269 6.15815 10.9707 6.06824 10.9673C6.06678 11.0217 6.06417 11.0744 6.06417 11.1289C6.06417 12.4301 6.5558 13.6165 7.36386 14.5135C7.36212 14.5108 8.75029 12.0516 11.4877 11.1677C11.5538 11.1457 11.6211 11.126 11.6878 11.1069C11.5605 10.819 11.4216 10.5305 11.2763 10.2461ZM14.4868 7.32724C13.5937 6.54089 12.4211 6.06391 11.1368 6.06391C10.7246 6.06391 10.3246 6.11373 9.9415 6.20582C10.0175 6.30778 10.9703 7.56996 11.8378 9.16056C13.7518 8.44404 14.4743 7.34577 14.4868 7.32724ZM12.0336 11.9462C12.0223 11.9499 12.011 11.9532 12 11.9572C9.00706 12.9991 8.02968 15.0987 8.01911 15.1217C8.88026 15.7904 9.96039 16.1939 11.1368 16.1939C11.8393 16.1939 12.5084 16.051 13.1172 15.7924C13.0421 15.3499 12.7474 13.7987 12.0336 11.9462ZM13.9714 15.3296C15.1104 14.5621 15.9193 13.3434 16.1449 11.9317C16.0405 11.8981 14.6213 11.4495 12.984 11.7116C13.6494 13.5374 13.9197 15.0244 13.9714 15.3296ZM12.2282 9.91534C12.346 10.1569 12.46 10.4027 12.5653 10.6498C12.6027 10.7385 12.6392 10.8254 12.6749 10.9122C14.4175 10.6933 16.1343 11.0617 16.2076 11.0767C16.196 9.87594 15.7659 8.77391 15.0542 7.91113C15.0446 7.92471 14.231 9.09858 12.2282 9.91534Z" fill="white" />
</svg>