<svg width="133" height="21" viewBox="0 0 133 21" fill="none" xmlns="http://www.w3.org/2000/svg">
<path d="M16.167 11.3027L11.5277 19.2482L6.88848 11.3027H16.167ZM17.4098 10.5925H5.64062L11.5277 20.6536L17.4098 10.5925Z" fill="white"/>
<path d="M24.2328 1.42026L28.872 9.36578H19.5936L24.2328 1.42026ZM24.2328 0L18.3457 10.061H30.1199L24.2328 0Z" fill="white"/>
<path d="M0 0L4.93613 8.89899L10.3301 0.223456L0 0Z" fill="#4CAF4F"/>
<path d="M11.5278 0.779602L16.7054 9.62894H6.34009L11.5278 0.779602Z" fill="#4CAF4F"/>
<path d="M18.0388 11.5609L23.2215 20.6536H12.6096L17.8778 11.5609H18.0388Z" fill="#4CAF4F"/>
<path d="M19.1609 11.0096L24.2328 19.9633L29.3753 11.0096H19.1609Z" fill="#4CAF4F"/>
<path d="M51.6621 1.43634V18.9606H48.4619L40.8378 7.93093H40.7095V18.9606H37.0044V1.43634H40.256L47.8202 12.4575H47.9742V1.43634H51.6621Z" fill="white"/>
<path d="M60.6446 19.2173C59.2926 19.2173 58.1289 18.9435 57.1534 18.3959C56.1837 17.8425 55.4364 17.061 54.9116 16.0513C54.3868 15.0359 54.1244 13.8351 54.1244 12.4489C54.1244 11.0969 54.3868 9.91039 54.9116 8.88929C55.4364 7.86818 56.1751 7.0724 57.1278 6.50195C58.0861 5.9315 59.2099 5.64627 60.4991 5.64627C61.3662 5.64627 62.1734 5.78603 62.9207 6.06555C63.6737 6.33937 64.3297 6.75295 64.8888 7.30628C65.4535 7.85962 65.8928 8.55557 66.2065 9.39414C66.5203 10.227 66.6771 11.2025 66.6771 12.3206V13.3217H55.579V11.0627H63.2459C63.2459 10.5379 63.1318 10.073 62.9036 9.66795C62.6754 9.26293 62.3588 8.94633 61.9538 8.71815C61.5545 8.48427 61.0896 8.36732 60.559 8.36732C60.0057 8.36732 59.5151 8.49567 59.0873 8.75238C58.6651 9.00338 58.3343 9.34279 58.0947 9.77063C57.8551 10.1928 57.7325 10.6634 57.7267 11.1825V13.3302C57.7267 13.9806 57.8465 14.5425 58.0861 15.0159C58.3314 15.4894 58.6766 15.8545 59.1215 16.1112C59.5665 16.3679 60.0941 16.4963 60.7045 16.4963C61.1095 16.4963 61.4803 16.4392 61.8169 16.3251C62.1535 16.211 62.4415 16.0399 62.6811 15.8117C62.9207 15.5835 63.1033 15.304 63.2288 14.9732L66.6001 15.1956C66.429 16.0057 66.0782 16.713 65.5476 17.3177C65.0228 17.9167 64.344 18.3844 63.5111 18.721C62.684 19.0519 61.7285 19.2173 60.6446 19.2173Z" fill="white"/>
<path d="M71.8668 5.81741L74.2798 10.4124L76.7527 5.81741H80.492L76.6843 12.389L80.5947 18.9606H76.8725L74.2798 14.417L71.7299 18.9606H67.9649L71.8668 12.389L68.1018 5.81741H71.8668Z" fill="white"/>
<path d="M88.1247 19.2173C86.7784 19.2173 85.6204 18.9321 84.6506 18.3616C83.6866 17.7855 82.945 16.9868 82.4259 15.9657C81.9125 14.9446 81.6558 13.7695 81.6558 12.4403C81.6558 11.0941 81.9153 9.91325 82.4344 8.89784C82.9592 7.87674 83.7037 7.08096 84.6677 6.5105C85.6318 5.93435 86.7784 5.64627 88.1076 5.64627C89.2542 5.64627 90.2582 5.85449 91.1195 6.27091C91.9809 6.68734 92.6626 7.27206 93.1646 8.02505C93.6666 8.77805 93.9433 9.66225 93.9946 10.6777H90.5548C90.4578 10.0216 90.2011 9.49396 89.7847 9.09465C89.374 8.68963 88.8349 8.48712 88.1675 8.48712C87.6027 8.48712 87.1093 8.64114 86.6871 8.94918C86.2707 9.25152 85.9455 9.69362 85.7117 10.2755C85.4778 10.8573 85.3608 11.5619 85.3608 12.389C85.3608 13.2276 85.4749 13.9406 85.7031 14.5282C85.937 15.1158 86.265 15.5636 86.6871 15.8716C87.1093 16.1797 87.6027 16.3337 88.1675 16.3337C88.5839 16.3337 88.9575 16.2481 89.2884 16.077C89.625 15.9058 89.9016 15.6577 90.1184 15.3325C90.3409 15.0017 90.4863 14.6052 90.5548 14.1431H93.9946C93.9376 15.1471 93.6638 16.0313 93.1732 16.7957C92.6883 17.5544 92.018 18.1477 91.1623 18.5756C90.3066 19.0034 89.2941 19.2173 88.1247 19.2173Z" fill="white"/>
<path d="M102.318 19.2173C100.966 19.2173 99.8025 18.9435 98.827 18.3959C97.8573 17.8425 97.11 17.061 96.5852 16.0513C96.0604 15.0359 95.798 13.8351 95.798 12.4489C95.798 11.0969 96.0604 9.91039 96.5852 8.88929C97.11 7.86818 97.8487 7.0724 98.8014 6.50195C99.7597 5.9315 100.884 5.64627 102.173 5.64627C103.04 5.64627 103.847 5.78603 104.594 6.06555C105.347 6.33937 106.003 6.75295 106.562 7.30628C107.127 7.85962 107.566 8.55557 107.88 9.39414C108.194 10.227 108.351 11.2025 108.351 12.3206V13.3217H97.2526V11.0627H104.919C104.919 10.5379 104.805 10.073 104.577 9.66795C104.349 9.26293 104.032 8.94633 103.627 8.71815C103.228 8.48427 102.763 8.36732 102.233 8.36732C101.679 8.36732 101.189 8.49567 100.761 8.75238C100.339 9.00338 100.008 9.34279 99.7683 9.77063C99.5287 10.1928 99.4061 10.6634 99.4003 11.1825V13.3302C99.4003 13.9806 99.5201 14.5425 99.7597 15.0159C100.005 15.4894 100.35 15.8545 100.795 16.1112C101.24 16.3679 101.768 16.4963 102.378 16.4963C102.783 16.4963 103.154 16.4392 103.49 16.3251C103.827 16.211 104.115 16.0399 104.355 15.8117C104.594 15.5835 104.777 15.304 104.902 14.9732L108.274 15.1956C108.103 16.0057 107.752 16.713 107.221 17.3177C106.696 17.9167 106.018 18.3844 105.185 18.721C104.358 19.0519 103.402 19.2173 102.318 19.2173Z" fill="white"/>
<path d="M114.375 11.3622V18.9606H110.73V5.81741H114.204V8.13629H114.358C114.649 7.37189 115.136 6.76721 115.821 6.32225C116.505 5.8716 117.335 5.64627 118.311 5.64627C119.224 5.64627 120.019 5.84593 120.698 6.24525C121.377 6.64456 121.905 7.21501 122.281 7.9566C122.658 8.69248 122.846 9.57098 122.846 10.5921V18.9606H119.201V11.2424C119.206 10.4381 119.001 9.81056 118.585 9.35991C118.168 8.90355 117.595 8.67537 116.865 8.67537C116.374 8.67537 115.941 8.7809 115.564 8.99197C115.193 9.20303 114.902 9.51108 114.691 9.9161C114.486 10.3154 114.38 10.7974 114.375 11.3622Z" fill="white"/>
<path d="M132.71 5.81741V8.55557H124.795V5.81741H132.71ZM126.592 2.66852H130.237V14.9218C130.237 15.2584 130.288 15.5208 130.391 15.709C130.494 15.8916 130.636 16.0199 130.819 16.0941C131.007 16.1682 131.224 16.2053 131.469 16.2053C131.64 16.2053 131.811 16.1911 131.982 16.1625C132.154 16.1283 132.285 16.1026 132.376 16.0855L132.949 18.798C132.767 18.8551 132.51 18.9207 132.179 18.9948C131.848 19.0747 131.446 19.1232 130.973 19.1403C130.094 19.1745 129.324 19.0576 128.662 18.7895C128.006 18.5214 127.496 18.1049 127.131 17.5402C126.766 16.9754 126.586 16.2624 126.592 15.401V2.66852Z" fill="white"/>
</svg>
