<svg width="23" height="21" viewBox="0 0 23 21" fill="none" xmlns="http://www.w3.org/2000/svg">
<mask id="path-1-inside-1_0_2155" fill="white">
<path d="M14.1605 10.1937C13.9929 10.1937 13.8373 10.1476 13.699 10.0735V10.0755C13.699 10.3392 13.5965 10.5868 13.4106 10.7723C13.2246 10.9582 12.9771 11.0607 12.7138 11.0607C12.5437 11.0607 12.3861 11.0135 12.2464 10.9374C12.2323 11.1787 12.1358 11.4041 11.9638 11.5763C11.7778 11.7623 11.5304 11.8648 11.2668 11.8648C10.7432 11.8648 10.3179 11.4532 10.2873 10.9373C10.1253 11.0248 9.94209 11.0707 9.75315 11.0586C9.23803 11.0248 8.83463 10.5798 8.83463 10.0451V5.61349L8.33 6.48773C8.13781 6.8221 7.77802 7.02971 7.39065 7.02971C7.2019 7.02971 7.01544 6.98019 6.8503 6.88556C6.64466 6.76634 6.49756 6.57497 6.43638 6.34601C6.37489 6.11692 6.4067 5.87732 6.5256 5.67199C6.52576 5.67199 8.17667 2.81309 8.27738 2.63748C8.28935 2.61108 8.32347 2.5345 8.35249 2.46923C8.38021 2.40691 8.40399 2.34295 8.42678 2.27867C8.92465 0.873106 10.1574 3.8147e-06 11.6442 3.8147e-06C13.5748 3.8147e-06 15.1455 1.70322 15.1455 3.79678L15.1457 9.20827C15.1457 9.47164 15.0434 9.71911 14.8576 9.90526C14.6716 10.0912 14.4242 10.1937 14.1605 10.1937L14.1605 10.1937ZM11.6442 0.523547C10.3667 0.523547 9.34843 1.24514 8.92026 2.45376C8.89287 2.5305 8.86434 2.60725 8.83104 2.68203C8.73445 2.89867 8.73445 2.89867 8.70723 2.92982L8.70362 2.92671C8.56882 3.18106 8.16835 3.87458 6.97891 5.93401C6.93004 6.01847 6.91709 6.11654 6.94201 6.21034C6.96727 6.30414 7.02778 6.38319 7.11159 6.43156C7.37168 6.58096 7.72788 6.48453 7.87612 6.22624L8.86975 4.50595C8.92912 4.40345 9.04916 4.35311 9.16428 4.38426C9.27875 4.41493 9.35829 4.51874 9.35829 4.63714V10.0453C9.35829 10.3004 9.55081 10.5207 9.78747 10.5363C9.92391 10.5435 10.0512 10.4977 10.1468 10.4023C10.2337 10.3154 10.2816 10.1996 10.2816 10.0758V6.53877C10.2816 6.39413 10.3988 6.27687 10.5435 6.27687C10.6881 6.27687 10.8054 6.39397 10.8054 6.53877L10.8052 10.8797C10.8052 11.1342 11.0123 11.3414 11.2668 11.3414C11.3905 11.3414 11.5066 11.2935 11.5937 11.2066C11.6806 11.1195 11.7285 11.0034 11.7285 10.8797V6.53877C11.7285 6.39413 11.8456 6.27687 11.9904 6.27687C12.135 6.27687 12.2523 6.39396 12.2523 6.53877L12.2521 10.0351V10.0757C12.2521 10.3301 12.4592 10.5372 12.7139 10.5372C12.8374 10.5372 12.9532 10.4892 13.0408 10.4019C13.1277 10.3152 13.1756 10.1994 13.1756 10.0756V6.53858C13.1756 6.39394 13.2926 6.27669 13.4374 6.27669C13.5821 6.27669 13.6993 6.39378 13.6993 6.53858L13.699 9.20839C13.699 9.46307 13.9061 9.6702 14.1605 9.6702C14.2843 9.6702 14.4001 9.62215 14.487 9.5354C14.5742 9.44815 14.622 9.33204 14.622 9.20839L14.6221 3.7969C14.6221 1.99218 13.2863 0.523601 11.6442 0.523601L11.6442 0.523547Z"/>
</mask>
<path d="M14.1605 10.1937C13.9929 10.1937 13.8373 10.1476 13.699 10.0735V10.0755C13.699 10.3392 13.5965 10.5868 13.4106 10.7723C13.2246 10.9582 12.9771 11.0607 12.7138 11.0607C12.5437 11.0607 12.3861 11.0135 12.2464 10.9374C12.2323 11.1787 12.1358 11.4041 11.9638 11.5763C11.7778 11.7623 11.5304 11.8648 11.2668 11.8648C10.7432 11.8648 10.3179 11.4532 10.2873 10.9373C10.1253 11.0248 9.94209 11.0707 9.75315 11.0586C9.23803 11.0248 8.83463 10.5798 8.83463 10.0451V5.61349L8.33 6.48773C8.13781 6.8221 7.77802 7.02971 7.39065 7.02971C7.2019 7.02971 7.01544 6.98019 6.8503 6.88556C6.64466 6.76634 6.49756 6.57497 6.43638 6.34601C6.37489 6.11692 6.4067 5.87732 6.5256 5.67199C6.52576 5.67199 8.17667 2.81309 8.27738 2.63748C8.28935 2.61108 8.32347 2.5345 8.35249 2.46923C8.38021 2.40691 8.40399 2.34295 8.42678 2.27867C8.92465 0.873106 10.1574 3.8147e-06 11.6442 3.8147e-06C13.5748 3.8147e-06 15.1455 1.70322 15.1455 3.79678L15.1457 9.20827C15.1457 9.47164 15.0434 9.71911 14.8576 9.90526C14.6716 10.0912 14.4242 10.1937 14.1605 10.1937L14.1605 10.1937ZM11.6442 0.523547C10.3667 0.523547 9.34843 1.24514 8.92026 2.45376C8.89287 2.5305 8.86434 2.60725 8.83104 2.68203C8.73445 2.89867 8.73445 2.89867 8.70723 2.92982L8.70362 2.92671C8.56882 3.18106 8.16835 3.87458 6.97891 5.93401C6.93004 6.01847 6.91709 6.11654 6.94201 6.21034C6.96727 6.30414 7.02778 6.38319 7.11159 6.43156C7.37168 6.58096 7.72788 6.48453 7.87612 6.22624L8.86975 4.50595C8.92912 4.40345 9.04916 4.35311 9.16428 4.38426C9.27875 4.41493 9.35829 4.51874 9.35829 4.63714V10.0453C9.35829 10.3004 9.55081 10.5207 9.78747 10.5363C9.92391 10.5435 10.0512 10.4977 10.1468 10.4023C10.2337 10.3154 10.2816 10.1996 10.2816 10.0758V6.53877C10.2816 6.39413 10.3988 6.27687 10.5435 6.27687C10.6881 6.27687 10.8054 6.39397 10.8054 6.53877L10.8052 10.8797C10.8052 11.1342 11.0123 11.3414 11.2668 11.3414C11.3905 11.3414 11.5066 11.2935 11.5937 11.2066C11.6806 11.1195 11.7285 11.0034 11.7285 10.8797V6.53877C11.7285 6.39413 11.8456 6.27687 11.9904 6.27687C12.135 6.27687 12.2523 6.39396 12.2523 6.53877L12.2521 10.0351V10.0757C12.2521 10.3301 12.4592 10.5372 12.7139 10.5372C12.8374 10.5372 12.9532 10.4892 13.0408 10.4019C13.1277 10.3152 13.1756 10.1994 13.1756 10.0756V6.53858C13.1756 6.39394 13.2926 6.27669 13.4374 6.27669C13.5821 6.27669 13.6993 6.39378 13.6993 6.53858L13.699 9.20839C13.699 9.46307 13.9061 9.6702 14.1605 9.6702C14.2843 9.6702 14.4001 9.62215 14.487 9.5354C14.5742 9.44815 14.622 9.33204 14.622 9.20839L14.6221 3.7969C14.6221 1.99218 13.2863 0.523601 11.6442 0.523601L11.6442 0.523547Z" fill="#4CAF4F"/>
<path d="M14.1605 10.1937V9.26561H17.4395L14.6469 10.9841L14.1605 10.1937ZM13.699 10.0735H12.7709V8.52276L14.1376 9.25556L13.699 10.0735ZM13.4106 10.7723L12.7543 10.116L12.7552 10.1152L13.4106 10.7723ZM12.2464 10.9374L11.3199 10.8833L11.4053 9.42258L12.6902 10.1223L12.2464 10.9374ZM11.9638 11.5763L12.6204 12.2323L12.6201 12.2326L11.9638 11.5763ZM10.2873 10.9373L9.84601 10.1208L11.1274 9.42824L11.2138 10.8822L10.2873 10.9373ZM9.75315 11.0586L9.69366 11.9848L9.69242 11.9847L9.75315 11.0586ZM8.83463 5.61349L8.03083 5.14952L9.76272 2.14911V5.61349H8.83463ZM8.33 6.48773L7.52536 6.02522L7.52621 6.02376L8.33 6.48773ZM6.8503 6.88556L6.38888 7.69084L6.38482 7.68848L6.8503 6.88556ZM6.43638 6.34601L7.33275 6.1054L7.33303 6.10645L6.43638 6.34601ZM6.5256 5.67199L5.72243 5.20693L5.99054 4.7439H6.5256V5.67199ZM8.27738 2.63748L9.12265 3.02074L9.10442 3.06093L9.08247 3.09921L8.27738 2.63748ZM8.35249 2.46923L7.50448 2.0921L7.50448 2.09209L8.35249 2.46923ZM8.42678 2.27867L9.30161 2.58854L9.30153 2.58879L8.42678 2.27867ZM15.1455 3.79678L14.2175 3.79681V3.79678H15.1455ZM15.1457 9.20827L16.0738 9.20824V9.20827H15.1457ZM14.8576 9.90526L15.5144 10.5609L15.5138 10.5615L14.8576 9.90526ZM14.1605 10.1937V11.1218H10.8815L13.6741 9.4033L14.1605 10.1937ZM11.6442 0.523547V-0.404546H12.8746L12.5366 0.778514L11.6442 0.523547ZM8.92026 2.45376L9.79508 2.76368L9.79436 2.76567L8.92026 2.45376ZM8.83104 2.68203L9.67891 3.05949L9.67869 3.05998L8.83104 2.68203ZM8.70723 2.92982L9.40613 3.54048L8.79898 4.23536L8.10061 3.63223L8.70723 2.92982ZM8.70362 2.92671L7.88357 2.49211L8.4289 1.46315L9.31024 2.22431L8.70362 2.92671ZM6.97891 5.93401L7.78259 6.39818L7.78221 6.39885L6.97891 5.93401ZM6.94201 6.21034L6.04583 6.45161L6.04506 6.44871L6.94201 6.21034ZM7.11159 6.43156L6.64932 7.23634L6.64758 7.23534L7.11159 6.43156ZM7.87612 6.22624L7.07118 5.76426L7.07245 5.76205L7.87612 6.22624ZM8.86975 4.50595L8.06609 4.04175L8.06665 4.04078L8.86975 4.50595ZM9.16428 4.38426L8.92411 5.28075L8.92181 5.28012L9.16428 4.38426ZM9.78747 10.5363L9.73845 11.4631L9.72652 11.4623L9.78747 10.5363ZM10.1468 10.4023L10.803 11.0585L10.8025 11.0591L10.1468 10.4023ZM10.8054 6.53877H11.7335V6.53881L10.8054 6.53877ZM10.8052 10.8797H9.87711V10.8797L10.8052 10.8797ZM11.5937 11.2066L12.2506 11.8622L12.2493 11.8634L11.5937 11.2066ZM12.2523 6.53877H13.1804V6.53881L12.2523 6.53877ZM12.2521 10.0351H11.324V10.035L12.2521 10.0351ZM13.0408 10.4019L13.6964 11.0588L13.6958 11.0594L13.0408 10.4019ZM13.6993 6.53858H14.6274V6.5387L13.6993 6.53858ZM13.699 9.20839H12.7709V9.20828L13.699 9.20839ZM14.487 9.5354L15.1433 10.1917L15.1426 10.1923L14.487 9.5354ZM14.622 9.20839H13.6939V9.20836L14.622 9.20839ZM14.6221 3.7969H15.5502V3.79693L14.6221 3.7969ZM11.6442 0.523601V1.45169H10.4138L10.7518 0.268634L11.6442 0.523601ZM14.1605 10.1937V11.1218C13.8188 11.1218 13.5137 11.0272 13.2605 10.8914L13.699 10.0735L14.1376 9.25556C14.1496 9.26199 14.1572 9.26445 14.1602 9.26526C14.1628 9.26597 14.1625 9.26561 14.1605 9.26561V10.1937ZM13.699 10.0735H14.6271V10.0755H13.699H12.7709V10.0735H13.699ZM13.699 10.0755H14.6271C14.6271 10.5845 14.4274 11.069 14.066 11.4294L13.4106 10.7723L12.7552 10.1152C12.7618 10.1085 12.7651 10.1029 12.767 10.0982C12.7689 10.0936 12.7709 10.0864 12.7709 10.0755H13.699ZM13.4106 10.7723L14.0668 11.4285C13.7067 11.7887 13.2231 11.9888 12.7138 11.9888V11.0607V10.1326C12.7244 10.1326 12.7314 10.1307 12.7362 10.1287C12.7409 10.1268 12.7471 10.1233 12.7543 10.116L13.4106 10.7723ZM12.7138 11.0607V11.9888C12.3675 11.9888 12.0586 11.892 11.8025 11.7525L12.2464 10.9374L12.6902 10.1223C12.7023 10.1289 12.71 10.1314 12.713 10.1323C12.7156 10.133 12.7154 10.1326 12.7138 10.1326V11.0607ZM12.2464 10.9374L13.1729 10.9916C13.1462 11.4484 12.9609 11.8915 12.6204 12.2323L11.9638 11.5763L11.3072 10.9204C11.3106 10.917 11.3126 10.9139 11.3143 10.9101C11.3162 10.9059 11.319 10.8974 11.3199 10.8833L12.2464 10.9374ZM11.9638 11.5763L12.6201 12.2326C12.2598 12.5928 11.7762 12.7929 11.2668 12.7929V11.8648V10.9367C11.2776 10.9367 11.2847 10.9348 11.2894 10.9328C11.2942 10.9308 11.3003 10.9273 11.3075 10.9201L11.9638 11.5763ZM11.2668 11.8648V12.7929C10.2422 12.7929 9.42002 11.9887 9.36083 10.9923L10.2873 10.9373L11.2138 10.8822C11.2147 10.898 11.2211 10.9119 11.2326 10.9227C11.2381 10.9281 11.2438 10.9315 11.2487 10.9335C11.253 10.9353 11.2585 10.9367 11.2668 10.9367V11.8648ZM10.2873 10.9373L10.7286 11.7537C10.4288 11.9158 10.0733 12.0092 9.69366 11.9848L9.75315 11.0586L9.81265 10.1324C9.81267 10.1324 9.81465 10.1326 9.81954 10.1315C9.82478 10.1303 9.83386 10.1274 9.84601 10.1208L10.2873 10.9373ZM9.75315 11.0586L9.69242 11.9847C8.66193 11.9171 7.90654 11.0408 7.90654 10.0451H8.83463H9.76272C9.76272 10.0765 9.77411 10.1007 9.7884 10.1164C9.80231 10.1318 9.81177 10.1324 9.81389 10.1325L9.75315 11.0586ZM8.83463 10.0451H7.90654V5.61349H8.83463H9.76272V10.0451H8.83463ZM8.83463 5.61349L9.63843 6.07746L9.1338 6.95169L8.33 6.48773L7.52621 6.02376L8.03083 5.14952L8.83463 5.61349ZM8.33 6.48773L9.13465 6.95023C8.77602 7.57414 8.10849 7.95781 7.39065 7.95781V7.02971V6.10162C7.44756 6.10162 7.49959 6.07007 7.52536 6.02522L8.33 6.48773ZM7.39065 7.02971V7.95781C7.03969 7.95781 6.6942 7.86577 6.38889 7.69083L6.8503 6.88556L7.31172 6.0803C7.33668 6.0946 7.36411 6.10162 7.39065 6.10162V7.02971ZM6.8503 6.88556L6.38482 7.68848C5.96813 7.44692 5.66484 7.05379 5.53974 6.58558L6.43638 6.34601L7.33303 6.10645C7.33218 6.10328 7.32987 6.09767 7.3254 6.09185C7.32096 6.08607 7.31685 6.08326 7.31579 6.08265L6.8503 6.88556ZM6.43638 6.34601L5.54002 6.58662C5.41444 6.11875 5.48018 5.6253 5.72243 5.20693L6.5256 5.67199L7.32876 6.13705C7.33009 6.13476 7.33241 6.12947 7.3334 6.12197C7.3344 6.11445 7.33356 6.10844 7.33275 6.1054L6.43638 6.34601ZM6.5256 5.67199V4.7439C6.07033 4.86323 5.72957 5.19482 5.72702 5.19909C5.72617 5.20052 5.72491 5.20267 5.72451 5.20336C5.72428 5.20375 5.72388 5.20443 5.72375 5.20466C5.72367 5.2048 5.7235 5.20509 5.72346 5.20516C5.72333 5.20539 5.72337 5.20532 5.72372 5.20472C5.72435 5.20363 5.7254 5.2018 5.72695 5.19913C5.72999 5.19386 5.73457 5.18594 5.74062 5.17547C5.75271 5.15456 5.77047 5.12382 5.79314 5.08458C5.83847 5.0061 5.90334 4.89377 5.98152 4.7584C6.13788 4.48766 6.34739 4.12484 6.56004 3.75653C6.98606 3.01867 7.42282 2.26201 7.4723 2.17575L8.27738 2.63748L9.08247 3.09921C9.03123 3.18856 8.59218 3.94916 8.16753 4.68465C7.95484 5.05301 7.7453 5.41589 7.58892 5.68668C7.51073 5.82208 7.44581 5.93447 7.40043 6.01303C7.37775 6.0523 7.35992 6.08315 7.34776 6.10421C7.34168 6.11472 7.33697 6.12287 7.33376 6.12843C7.33217 6.13118 7.33085 6.13345 7.32989 6.13512C7.32944 6.13589 7.32888 6.13685 7.32835 6.13777C7.32815 6.13811 7.32755 6.13913 7.32684 6.14036C7.32639 6.14113 7.32508 6.14334 7.32421 6.14482C7.32164 6.14914 6.98086 6.48075 6.5256 6.60008V5.67199ZM8.27738 2.63748L7.43212 2.25422C7.44234 2.23169 7.47471 2.15905 7.50448 2.0921L8.35249 2.46923L9.20051 2.84635C9.17223 2.90995 9.13637 2.99047 9.12265 3.02074L8.27738 2.63748ZM8.35249 2.46923L7.50448 2.09209C7.51738 2.06308 7.53166 2.02602 7.55204 1.96854L8.42678 2.27867L9.30153 2.58879C9.27632 2.65988 9.24304 2.75073 9.20051 2.84636L8.35249 2.46923ZM8.42678 2.27867L7.55195 1.96879C8.18054 0.194175 9.76271 -0.928089 11.6442 -0.928089V3.8147e-06V0.928096C10.5521 0.928096 9.66876 1.55204 9.30161 2.58854L8.42678 2.27867ZM11.6442 3.8147e-06V-0.928089C14.1567 -0.928089 16.0736 1.26285 16.0736 3.79678H15.1455H14.2175C14.2175 2.14359 12.9929 0.928096 11.6442 0.928096V3.8147e-06ZM15.1455 3.79678L16.0736 3.79675L16.0738 9.20824L15.1457 9.20827L14.2176 9.2083L14.2175 3.79681L15.1455 3.79678ZM15.1457 9.20827H16.0738C16.0738 9.71721 15.8741 10.2006 15.5144 10.5609L14.8576 9.90526L14.2007 9.2496C14.208 9.24225 14.2116 9.236 14.2136 9.23113C14.2157 9.22625 14.2176 9.21909 14.2176 9.20827H15.1457ZM14.8576 9.90526L15.5138 10.5615C15.1536 10.9218 14.6699 11.1218 14.1605 11.1218V10.1937V9.26563C14.1714 9.26563 14.1785 9.26365 14.1832 9.26169C14.188 9.25973 14.1941 9.25623 14.2013 9.249L14.8576 9.90526ZM14.1605 10.1937L13.6741 9.4033L13.6741 9.40328L14.1605 10.1937L14.6469 10.9841L14.6469 10.9841L14.1605 10.1937ZM11.6442 0.523547V1.45164C10.7618 1.45164 10.0927 1.92368 9.79507 2.76368L8.92026 2.45376L8.04544 2.14384C8.6042 0.566589 9.97156 -0.404546 11.6442 -0.404546V0.523547ZM8.92026 2.45376L9.79436 2.76567C9.76507 2.84777 9.72701 2.95146 9.67891 3.05949L8.83104 2.68203L7.98317 2.30458C8.00166 2.26305 8.02067 2.21324 8.04615 2.14184L8.92026 2.45376ZM8.83104 2.68203L9.67869 3.05998C9.63619 3.1553 9.60058 3.2358 9.57334 3.29033C9.55643 3.32417 9.52905 3.37633 9.48935 3.4341C9.44912 3.49263 9.40936 3.53678 9.40613 3.54048L8.70723 2.92982L8.00833 2.31917C8.01051 2.31668 8.0098 2.31749 8.0087 2.31876C8.00728 2.32041 8.00368 2.32462 7.99894 2.33039C7.99404 2.33636 7.98786 2.34408 7.98091 2.35326C7.97389 2.36252 7.96674 2.37237 7.9596 2.38276C7.94506 2.40392 7.93387 2.42245 7.92591 2.43646C7.91847 2.44955 7.91392 2.4586 7.9129 2.46064C7.91185 2.46275 7.91251 2.46151 7.91566 2.45476C7.91872 2.44821 7.92305 2.43879 7.92925 2.42508C7.93541 2.41148 7.94278 2.39506 7.95185 2.37477C7.96091 2.35451 7.97126 2.3313 7.98339 2.30409L8.83104 2.68203ZM8.70723 2.92982L8.10061 3.63223L8.097 3.62911L8.70362 2.92671L9.31024 2.22431L9.31385 2.22742L8.70723 2.92982ZM8.70362 2.92671L9.52367 3.36131C9.37841 3.63539 8.96373 4.35312 7.78259 6.39818L6.97891 5.93401L6.17523 5.46984C7.37297 3.39604 7.75923 2.72673 7.88357 2.49211L8.70362 2.92671ZM6.97891 5.93401L7.78221 6.39885C7.85647 6.27052 7.87717 6.11568 7.83897 5.97196L6.94201 6.21034L6.04506 6.44871C5.95701 6.11739 6.00361 5.76642 6.17562 5.46917L6.97891 5.93401ZM6.94201 6.21034L7.8382 5.96906C7.80001 5.82721 7.70614 5.70315 7.57559 5.62778L7.11159 6.43156L6.64758 7.23534C6.34943 7.06322 6.13453 6.78107 6.04583 6.45161L6.94201 6.21034ZM7.11159 6.43156L7.57385 5.62679C7.46821 5.5661 7.36546 5.5665 7.29451 5.58561C7.22383 5.60463 7.13321 5.65618 7.07118 5.76426L7.87612 6.22624L8.68106 6.68823C8.27658 7.39298 7.35218 7.64007 6.64932 7.23634L7.11159 6.43156ZM7.87612 6.22624L7.07245 5.76205L8.06609 4.04175L8.86975 4.50595L9.67342 4.97014L8.67979 6.69044L7.87612 6.22624ZM8.86975 4.50595L8.06665 4.04078C8.33472 3.57796 8.88189 3.34634 9.40675 3.48841L9.16428 4.38426L8.92181 5.28012C9.21643 5.35987 9.52352 5.22894 9.67285 4.97112L8.86975 4.50595ZM9.16428 4.38426L9.40445 3.48779C9.92513 3.62728 10.2864 4.09912 10.2864 4.63714H9.35829H8.43019C8.43019 4.93836 8.63238 5.20259 8.92411 5.28074L9.16428 4.38426ZM9.35829 4.63714H10.2864V10.0453H9.35829H8.43019V4.63714H9.35829ZM9.35829 10.0453H10.2864C10.2864 9.93952 10.2472 9.84337 10.1829 9.76979C10.1187 9.69633 10.0054 9.62049 9.84842 9.61016L9.78747 10.5363L9.72652 11.4623C8.94524 11.4109 8.43019 10.7303 8.43019 10.0453H9.35829ZM9.78747 10.5363L9.83648 9.60945C9.72684 9.60365 9.59288 9.64382 9.49109 9.74544L10.1468 10.4023L10.8025 11.0591C10.5094 11.3516 10.121 11.4833 9.73845 11.463L9.78747 10.5363ZM10.1468 10.4023L9.49051 9.74601C9.40244 9.83409 9.35348 9.95476 9.35348 10.0758H10.2816H11.2097C11.2097 10.4444 11.0649 10.7966 10.803 11.0585L10.1468 10.4023ZM10.2816 10.0758H9.35348V6.53877H10.2816H11.2097V10.0758H10.2816ZM10.2816 6.53877H9.35348C9.35348 5.88156 9.88626 5.34878 10.5435 5.34878V6.27687V7.20497C10.9114 7.20497 11.2097 6.9067 11.2097 6.53877H10.2816ZM10.5435 6.27687V5.34878C11.2003 5.34878 11.7335 5.88102 11.7335 6.53877H10.8054H9.87728C9.87728 6.90691 10.1759 7.20497 10.5435 7.20497V6.27687ZM10.8054 6.53877L11.7335 6.53881L11.7333 10.8798L10.8052 10.8797L9.87711 10.8797L9.87728 6.53874L10.8054 6.53877ZM10.8052 10.8797H11.7333C11.7333 10.6217 11.5249 10.4133 11.2668 10.4133V11.3414V12.2694C10.4998 12.2694 9.87711 11.6468 9.87711 10.8797H10.8052ZM11.2668 11.3414V10.4133C11.146 10.4133 11.026 10.4619 10.9381 10.5497L11.5937 11.2066L12.2493 11.8634C11.9872 12.125 11.6349 12.2694 11.2668 12.2694V11.3414ZM11.5937 11.2066L10.9368 10.5509C10.8491 10.6388 10.8004 10.7589 10.8004 10.8797H11.7285H12.6566C12.6566 11.2478 12.5121 11.6001 12.2506 11.8622L11.5937 11.2066ZM11.7285 10.8797H10.8004V6.53877H11.7285H12.6566V10.8797H11.7285ZM11.7285 6.53877H10.8004C10.8004 5.88194 11.3326 5.34878 11.9904 5.34878V6.27687V7.20496C12.3585 7.20496 12.6566 6.90631 12.6566 6.53877H11.7285ZM11.9904 6.27687V5.34878C12.6472 5.34878 13.1804 5.88101 13.1804 6.53877H12.2523H11.3242C11.3242 6.90691 11.6228 7.20496 11.9904 7.20496V6.27687ZM12.2523 6.53877L13.1804 6.53881L13.1802 10.0351L12.2521 10.0351L11.324 10.035L11.3242 6.53872L12.2523 6.53877ZM12.2521 10.0351H13.1802V10.0757H12.2521H11.324V10.0351H12.2521ZM12.2521 10.0757H13.1802C13.1802 9.81708 12.9714 9.60912 12.7139 9.60912V10.5372V11.4653C11.9471 11.4653 11.324 10.8431 11.324 10.0757H12.2521ZM12.7139 10.5372V9.60912C12.5906 9.60912 12.4712 9.65927 12.3857 9.74443L13.0408 10.4019L13.6958 11.0594C13.4352 11.3191 13.0842 11.4653 12.7139 11.4653V10.5372ZM13.0408 10.4019L12.3851 9.74504C12.2963 9.83365 12.2475 9.95473 12.2475 10.0756H13.1756H14.1036C14.1036 10.444 13.959 10.7967 13.6964 11.0588L13.0408 10.4019ZM13.1756 10.0756H12.2475V6.53858H13.1756H14.1036V10.0756H13.1756ZM13.1756 6.53858H12.2475C12.2475 5.88174 12.7797 5.3486 13.4374 5.3486V6.27669V7.20478C13.8056 7.20478 14.1036 6.90614 14.1036 6.53858H13.1756ZM13.4374 6.27669V5.3486C14.0943 5.3486 14.6274 5.88083 14.6274 6.53858H13.6993H12.7713C12.7713 6.90673 13.0699 7.20478 13.4374 7.20478V6.27669ZM13.6993 6.53858L14.6274 6.5387L14.6271 9.20851L13.699 9.20839L12.7709 9.20828L12.7713 6.53847L13.6993 6.53858ZM13.699 9.20839H14.6271C14.6271 8.95094 14.4192 8.7421 14.1605 8.7421V9.6702V10.5983C13.3931 10.5983 12.7709 9.97521 12.7709 9.20839H13.699ZM14.1605 9.6702V8.7421C14.0387 8.7421 13.9186 8.7914 13.8314 8.87852L14.487 9.5354L15.1426 10.1923C14.8815 10.4529 14.5299 10.5983 14.1605 10.5983V9.6702ZM14.487 9.5354L13.8307 8.87914C13.7424 8.96751 13.6939 9.08812 13.6939 9.20839H14.622H15.55C15.55 9.57596 15.4061 9.9288 15.1433 10.1917L14.487 9.5354ZM14.622 9.20839L13.6939 9.20836L13.694 3.79688L14.6221 3.7969L15.5502 3.79693L15.55 9.20842L14.622 9.20839ZM14.6221 3.7969H13.694C13.694 2.42017 12.693 1.45169 11.6442 1.45169V0.523601V-0.404492C13.8795 -0.404492 15.5502 1.56419 15.5502 3.7969H14.6221ZM11.6442 0.523601L10.7518 0.268634L10.7518 0.26858L11.6442 0.523547L12.5366 0.778514L12.5365 0.778567L11.6442 0.523601Z" fill="#4CAF4F" mask="url(#path-1-inside-1_0_2155)"/>
<path d="M2.78027 11.9818L2.72852 11.9544C2.71624 11.9765 2.6818 12.0384 2.63086 12.1302C2.64895 12.1392 2.66727 12.1467 2.68555 12.1536C2.7167 12.0975 2.74792 12.04 2.78027 11.9818Z" fill="#4CAF4F" stroke="#4CAF4F" stroke-width="0.928093"/>
<mask id="path-4-inside-2_0_2155" fill="white">
<path d="M22.0305 19.2517C21.5472 20.0577 20.7524 20.6094 19.7922 20.8056C18.8405 20.9996 17.8397 20.8206 16.9735 20.3013L12.3328 17.5174C12.107 17.3819 11.9472 17.1667 11.8833 16.9112C11.8198 16.6562 11.8595 16.3914 11.9948 16.1657C12.0792 16.0247 12.1976 15.9135 12.3349 15.8313L12.3336 15.8305C12.1078 15.695 11.948 15.4799 11.8844 15.2247C11.8205 14.9695 11.8602 14.7045 11.9956 14.4786C12.0829 14.3334 12.2024 14.2199 12.3388 14.1394C12.1407 14.0031 11.9981 13.8052 11.9394 13.5704C11.8754 13.315 11.9151 13.0502 12.0505 12.8245C12.1858 12.5987 12.4012 12.4391 12.6563 12.3753C12.736 12.3553 12.8169 12.3455 12.8969 12.3455C13.054 12.3456 13.2082 12.3855 13.3499 12.4596C13.3586 12.2761 13.4132 12.0959 13.5204 11.9412C13.8145 11.517 14.4035 11.3996 14.8624 11.6749L18.6626 13.9544L18.1728 13.0721C17.9848 12.7353 17.9917 12.3197 18.191 11.9875C18.288 11.8258 18.4268 11.6915 18.5926 11.5985C18.7288 11.523 18.8764 11.4873 19.0221 11.4873C19.3348 11.4874 19.6385 11.6524 19.8002 11.9445C20.3637 12.9598 21.427 14.8746 21.5018 15.0082C21.5177 15.0314 21.5657 15.1002 21.6069 15.1588C21.6461 15.2144 21.6884 15.2675 21.7322 15.3203C22.6811 16.4705 22.7955 17.9768 22.0305 19.2517L22.0305 19.2517ZM21.3281 15.6541C21.276 15.5909 21.2248 15.5265 21.1783 15.4601C21.0366 15.259 21.033 15.2538 21.0223 15.2011C20.8567 14.9271 20.4526 14.1996 19.3419 12.1986C19.2445 12.0229 19.0231 11.9588 18.8468 12.0562C18.76 12.1048 18.6903 12.1725 18.6395 12.2573C18.5365 12.429 18.5326 12.6435 18.6298 12.8176L19.5938 14.5545C19.6513 14.6581 19.6322 14.7874 19.547 14.8697C19.4621 14.9522 19.3322 14.9666 19.2302 14.9059L14.5929 12.1239C14.3743 11.9929 14.0861 12.0442 13.951 12.2394C13.8733 12.3516 13.8485 12.4854 13.881 12.6161C13.9108 12.7355 13.9858 12.8362 14.0919 12.8998C14.0922 12.9 14.0924 12.9003 14.0927 12.9004L17.1248 14.7194C17.2487 14.7939 17.2889 14.9546 17.2145 15.0788C17.14 15.2026 16.9795 15.2431 16.8552 15.1685L13.1327 12.9354C13.0271 12.8721 12.9028 12.8534 12.7834 12.8834C12.6637 12.9132 12.563 12.988 12.4995 13.0941C12.4359 13.1999 12.4175 13.324 12.447 13.4434C12.4769 13.5628 12.5518 13.6637 12.6578 13.7273L13.3821 14.1617L16.3801 15.9604C16.504 16.0349 16.5442 16.1956 16.4698 16.3197C16.3953 16.4435 16.2348 16.4839 16.1105 16.4094L13.0778 14.5899C12.8596 14.4587 12.5756 14.5299 12.4444 14.7483C12.3808 14.8543 12.3624 14.9784 12.3919 15.0978C12.4218 15.2172 12.4967 15.3179 12.6028 15.3817L13.3464 15.8277L15.6355 17.2012C15.7595 17.2756 15.7997 17.4363 15.7252 17.5605C15.6508 17.6843 15.4902 17.725 15.3659 17.6502L13.0768 16.2767C12.9712 16.2134 12.8473 16.1947 12.7273 16.2248C12.6079 16.2546 12.5069 16.3294 12.4434 16.4352C12.38 16.5411 12.3614 16.6654 12.391 16.7846C12.4208 16.904 12.4957 17.0047 12.6018 17.0685L17.2425 19.8524C17.9956 20.3042 18.8641 20.4606 19.687 20.2927C20.5014 20.1264 21.1741 19.6612 21.5811 18.9826C22.2389 17.8868 22.1443 16.6424 21.3284 15.654L21.3281 15.6541Z"/>
</mask>
<path d="M22.0305 19.2517C21.5472 20.0577 20.7524 20.6094 19.7922 20.8056C18.8405 20.9996 17.8397 20.8206 16.9735 20.3013L12.3328 17.5174C12.107 17.3819 11.9472 17.1667 11.8833 16.9112C11.8198 16.6562 11.8595 16.3914 11.9948 16.1657C12.0792 16.0247 12.1976 15.9135 12.3349 15.8313L12.3336 15.8305C12.1078 15.695 11.948 15.4799 11.8844 15.2247C11.8205 14.9695 11.8602 14.7045 11.9956 14.4786C12.0829 14.3334 12.2024 14.2199 12.3388 14.1394C12.1407 14.0031 11.9981 13.8052 11.9394 13.5704C11.8754 13.315 11.9151 13.0502 12.0505 12.8245C12.1858 12.5987 12.4012 12.4391 12.6563 12.3753C12.736 12.3553 12.8169 12.3455 12.8969 12.3455C13.054 12.3456 13.2082 12.3855 13.3499 12.4596C13.3586 12.2761 13.4132 12.0959 13.5204 11.9412C13.8145 11.517 14.4035 11.3996 14.8624 11.6749L18.6626 13.9544L18.1728 13.0721C17.9848 12.7353 17.9917 12.3197 18.191 11.9875C18.288 11.8258 18.4268 11.6915 18.5926 11.5985C18.7288 11.523 18.8764 11.4873 19.0221 11.4873C19.3348 11.4874 19.6385 11.6524 19.8002 11.9445C20.3637 12.9598 21.427 14.8746 21.5018 15.0082C21.5177 15.0314 21.5657 15.1002 21.6069 15.1588C21.6461 15.2144 21.6884 15.2675 21.7322 15.3203C22.6811 16.4705 22.7955 17.9768 22.0305 19.2517L22.0305 19.2517ZM21.3281 15.6541C21.276 15.5909 21.2248 15.5265 21.1783 15.4601C21.0366 15.259 21.033 15.2538 21.0223 15.2011C20.8567 14.9271 20.4526 14.1996 19.3419 12.1986C19.2445 12.0229 19.0231 11.9588 18.8468 12.0562C18.76 12.1048 18.6903 12.1725 18.6395 12.2573C18.5365 12.429 18.5326 12.6435 18.6298 12.8176L19.5938 14.5545C19.6513 14.6581 19.6322 14.7874 19.547 14.8697C19.4621 14.9522 19.3322 14.9666 19.2302 14.9059L14.5929 12.1239C14.3743 11.9929 14.0861 12.0442 13.951 12.2394C13.8733 12.3516 13.8485 12.4854 13.881 12.6161C13.9108 12.7355 13.9858 12.8362 14.0919 12.8998C14.0922 12.9 14.0924 12.9003 14.0927 12.9004L17.1248 14.7194C17.2487 14.7939 17.2889 14.9546 17.2145 15.0788C17.14 15.2026 16.9795 15.2431 16.8552 15.1685L13.1327 12.9354C13.0271 12.8721 12.9028 12.8534 12.7834 12.8834C12.6637 12.9132 12.563 12.988 12.4995 13.0941C12.4359 13.1999 12.4175 13.324 12.447 13.4434C12.4769 13.5628 12.5518 13.6637 12.6578 13.7273L13.3821 14.1617L16.3801 15.9604C16.504 16.0349 16.5442 16.1956 16.4698 16.3197C16.3953 16.4435 16.2348 16.4839 16.1105 16.4094L13.0778 14.5899C12.8596 14.4587 12.5756 14.5299 12.4444 14.7483C12.3808 14.8543 12.3624 14.9784 12.3919 15.0978C12.4218 15.2172 12.4967 15.3179 12.6028 15.3817L13.3464 15.8277L15.6355 17.2012C15.7595 17.2756 15.7997 17.4363 15.7252 17.5605C15.6508 17.6843 15.4902 17.725 15.3659 17.6502L13.0768 16.2767C12.9712 16.2134 12.8473 16.1947 12.7273 16.2248C12.6079 16.2546 12.5069 16.3294 12.4434 16.4352C12.38 16.5411 12.3614 16.6654 12.391 16.7846C12.4208 16.904 12.4957 17.0047 12.6018 17.0685L17.2425 19.8524C17.9956 20.3042 18.8641 20.4606 19.687 20.2927C20.5014 20.1264 21.1741 19.6612 21.5811 18.9826C22.2389 17.8868 22.1443 16.6424 21.3284 15.654L21.3281 15.6541Z" fill="#4CAF4F"/>
<path d="M22.0305 19.2517L21.731 18.3733L24.1297 17.5555L22.8265 19.729L22.0305 19.2517ZM19.7922 20.8056L19.9779 21.7149L19.9776 21.7149L19.7922 20.8056ZM16.9735 20.3013L16.4962 21.0972L16.496 21.0971L16.9735 20.3013ZM12.3328 17.5174L12.8102 16.7215L12.8102 16.7215L12.3328 17.5174ZM11.8833 16.9112L10.9829 17.1366L10.9826 17.1354L11.8833 16.9112ZM11.9948 16.1657L12.791 16.6425L12.7908 16.6429L11.9948 16.1657ZM12.3349 15.8313L12.8268 15.0443L14.1134 15.8484L12.8115 16.6277L12.3349 15.8313ZM12.3336 15.8305L12.811 15.0346L12.8183 15.039L12.8255 15.0435L12.3336 15.8305ZM11.8844 15.2247L12.7847 14.9991L12.785 15.0002L11.8844 15.2247ZM11.9956 14.4786L11.1996 14.0013L11.2002 14.0004L11.9956 14.4786ZM12.3388 14.1394L12.8649 13.3748L14.0635 14.1993L12.8105 14.9387L12.3388 14.1394ZM11.9394 13.5704L12.8396 13.3449L12.8398 13.3453L11.9394 13.5704ZM12.0505 12.8245L12.8467 13.3015L12.8463 13.3022L12.0505 12.8245ZM12.6563 12.3753L12.8823 13.2755L12.8814 13.2757L12.6563 12.3753ZM12.8969 12.3455V11.4174L12.8979 11.4174L12.8969 12.3455ZM13.3499 12.4596L14.2769 12.5035L14.2081 13.9561L12.9196 13.282L13.3499 12.4596ZM13.5204 11.9412L14.2832 12.4699L14.2831 12.4701L13.5204 11.9412ZM14.8624 11.6749L14.385 12.4708L14.3849 12.4707L14.8624 11.6749ZM18.6626 13.9544L19.474 13.5039L21.155 16.5317L18.1852 14.7503L18.6626 13.9544ZM18.1728 13.0721L18.9832 12.6199L18.9842 12.6216L18.1728 13.0721ZM18.191 11.9875L17.395 11.5101L17.3953 11.5097L18.191 11.9875ZM18.5926 11.5985L18.1386 10.789L18.1431 10.7865L18.5926 11.5985ZM19.0221 11.4873V10.5592L19.0225 10.5592L19.0221 11.4873ZM19.8002 11.9445L18.9887 12.3949L18.9882 12.394L19.8002 11.9445ZM21.5018 15.0082L20.7371 15.5343L20.7128 15.4988L20.6918 15.4613L21.5018 15.0082ZM21.6069 15.1588L20.8484 15.6936L20.8477 15.6926L21.6069 15.1588ZM21.7322 15.3203L22.4466 14.7279L22.4481 14.7297L21.7322 15.3203ZM22.0305 19.2517L22.3299 20.1302L19.9301 20.9483L21.2347 18.7742L22.0305 19.2517ZM21.3281 15.6541L21.4201 16.5776L20.9277 16.6266L20.6126 16.2451L21.3281 15.6541ZM21.1783 15.4601L21.9369 14.9254L21.9381 14.9272L21.1783 15.4601ZM21.0223 15.2011L21.8166 14.721L21.8999 14.859L21.9319 15.0169L21.0223 15.2011ZM19.3419 12.1986L18.5304 12.649L18.5303 12.6487L19.3419 12.1986ZM18.8468 12.0562L18.3936 11.2463L18.3979 11.2439L18.8468 12.0562ZM18.6395 12.2573L19.4355 12.7345L19.4354 12.7347L18.6395 12.2573ZM18.6298 12.8176L19.4402 12.3652L19.4413 12.3673L18.6298 12.8176ZM19.5938 14.5545L18.7824 15.0051L18.7823 15.0049L19.5938 14.5545ZM19.547 14.8697L18.9005 14.2038L18.9018 14.2026L19.547 14.8697ZM19.2302 14.9059L18.7557 15.7036L18.7528 15.7018L19.2302 14.9059ZM14.5929 12.1239L15.07 11.3279L15.0703 11.3281L14.5929 12.1239ZM13.951 12.2394L14.714 12.7678L14.7138 12.768L13.951 12.2394ZM13.881 12.6161L12.9806 12.8412L12.9803 12.8398L13.881 12.6161ZM14.0919 12.8998L13.6767 13.7299L13.645 13.714L13.6145 13.6957L14.0919 12.8998ZM14.0927 12.9004L14.5078 12.0704L14.5396 12.0863L14.5701 12.1046L14.0927 12.9004ZM17.1248 14.7194L17.6022 13.9236L17.6026 13.9238L17.1248 14.7194ZM17.2145 15.0788L18.0104 15.5561L18.0098 15.557L17.2145 15.0788ZM16.8552 15.1685L17.3326 14.3726L17.3328 14.3727L16.8552 15.1685ZM13.1327 12.9354L13.6098 12.1393L13.6101 12.1395L13.1327 12.9354ZM12.7834 12.8834L13.0096 13.7835L13.0079 13.7839L12.7834 12.8834ZM12.4995 13.0941L13.296 13.5705L13.2948 13.5725L12.4995 13.0941ZM12.447 13.4434L11.5466 13.6685L11.5461 13.6662L12.447 13.4434ZM12.6578 13.7273L12.1804 14.5232L12.1799 14.5229L12.6578 13.7273ZM13.3821 14.1617L13.8595 13.3658L13.8596 13.3659L13.3821 14.1617ZM16.3801 15.9604L16.8575 15.1646L16.8579 15.1648L16.3801 15.9604ZM16.4698 16.3197L17.2657 16.7971L17.2651 16.798L16.4698 16.3197ZM16.1105 16.4094L15.6336 17.2056L15.633 17.2053L16.1105 16.4094ZM13.0778 14.5899L12.6003 15.3858L12.5994 15.3852L13.0778 14.5899ZM12.4444 14.7483L13.24 15.2262L13.24 15.2262L12.4444 14.7483ZM12.3919 15.0978L11.4916 15.3229L11.491 15.3206L12.3919 15.0978ZM12.6028 15.3817L12.1254 16.1775L12.1246 16.1771L12.6028 15.3817ZM13.3464 15.8277L13.8238 15.0319L13.8239 15.0319L13.3464 15.8277ZM15.6355 17.2012L16.113 16.4053L16.1133 16.4055L15.6355 17.2012ZM15.7252 17.5605L16.5212 18.0378L16.5206 18.0388L15.7252 17.5605ZM15.3659 17.6502L15.8434 16.8543L15.8444 16.8549L15.3659 17.6502ZM13.0768 16.2767L13.5539 15.4807L13.5543 15.4809L13.0768 16.2767ZM12.7273 16.2248L12.5022 15.3244L12.5022 15.3244L12.7273 16.2248ZM12.4434 16.4352L11.6473 15.9582L11.6476 15.9577L12.4434 16.4352ZM12.391 16.7846L11.4906 17.0097L11.4901 17.0077L12.391 16.7846ZM12.6018 17.0685L12.1244 17.8644L12.1236 17.8639L12.6018 17.0685ZM17.2425 19.8524L17.72 19.0565L17.72 19.0566L17.2425 19.8524ZM19.687 20.2927L19.8727 21.202L19.8726 21.2021L19.687 20.2927ZM21.5811 18.9826L20.7852 18.5052L20.7854 18.5049L21.5811 18.9826ZM21.3284 15.654L21.2365 14.7305L21.7291 14.6815L22.0442 15.0632L21.3284 15.654ZM22.0305 19.2517L22.8265 19.729C22.203 20.7689 21.1807 21.4692 19.9779 21.7149L19.7922 20.8056L19.6064 19.8962C20.324 19.7497 20.8915 19.3466 21.2345 18.7744L22.0305 19.2517ZM19.7922 20.8056L19.9776 21.7149C18.789 21.9573 17.5528 21.7307 16.4962 21.0972L16.9735 20.3013L17.4507 19.5053C18.1266 19.9105 18.8921 20.0419 19.6068 19.8962L19.7922 20.8056ZM16.9735 20.3013L16.496 21.0971L11.8553 18.3132L12.3328 17.5174L12.8102 16.7215L17.4509 19.5054L16.9735 20.3013ZM12.3328 17.5174L11.8554 18.3132C11.4189 18.0514 11.1068 17.6313 10.9829 17.1366L11.8833 16.9112L12.7836 16.6859C12.7861 16.6959 12.7896 16.7022 12.7927 16.7064C12.7958 16.7106 12.8009 16.7159 12.8102 16.7215L12.3328 17.5174ZM11.8833 16.9112L10.9826 17.1354C10.8597 16.6413 10.9375 16.1243 11.1988 15.6885L11.9948 16.1657L12.7908 16.6429C12.7852 16.6522 12.7832 16.6595 12.7824 16.6648C12.7816 16.6701 12.7815 16.6773 12.7839 16.6871L11.8833 16.9112ZM11.9948 16.1657L11.1985 15.6889C11.3706 15.4015 11.6058 15.1861 11.8583 15.035L12.3349 15.8313L12.8115 16.6277C12.8003 16.6344 12.7942 16.6397 12.7918 16.642C12.7896 16.6442 12.79 16.6443 12.791 16.6425L11.9948 16.1657ZM12.3349 15.8313L11.843 16.6183L11.8417 16.6175L12.3336 15.8305L12.8255 15.0435L12.8268 15.0443L12.3349 15.8313ZM12.3336 15.8305L11.8562 16.6264C11.4199 16.3647 11.1074 15.9444 10.9839 15.4492L11.8844 15.2247L12.785 15.0002C12.7873 15.0096 12.7906 15.0155 12.7936 15.0196C12.7967 15.0237 12.8017 15.0291 12.811 15.0346L12.3336 15.8305ZM11.8844 15.2247L10.9842 15.4503C10.8601 14.9552 10.9381 14.4375 11.1996 14.0013L11.9956 14.4786L12.7916 14.9558C12.7859 14.9652 12.7839 14.9725 12.7832 14.9776C12.7824 14.9827 12.7823 14.9896 12.7847 14.9991L11.8844 15.2247ZM11.9956 14.4786L11.2002 14.0004C11.3715 13.7154 11.6056 13.4945 11.8672 13.3401L12.3388 14.1394L12.8105 14.9387C12.8045 14.9423 12.8004 14.9456 12.7977 14.9483C12.7952 14.9508 12.793 14.9534 12.791 14.9567L11.9956 14.4786ZM12.3388 14.1394L11.8128 14.9041C11.438 14.6462 11.1553 14.2608 11.039 13.7954L11.9394 13.5704L12.8398 13.3453C12.8408 13.3496 12.8423 13.3528 12.8447 13.3561C12.8473 13.3598 12.8531 13.3667 12.8649 13.3748L12.3388 14.1394ZM11.9394 13.5704L11.0391 13.7959C10.9151 13.3008 10.993 12.783 11.2548 12.3468L12.0505 12.8245L12.8463 13.3022C12.8408 13.3113 12.8388 13.3183 12.8381 13.3233C12.8374 13.3283 12.8372 13.3351 12.8396 13.3449L11.9394 13.5704ZM12.0505 12.8245L11.2544 12.3475C11.5164 11.9103 11.9371 11.5985 12.4313 11.4749L12.6563 12.3753L12.8814 13.2757C12.8715 13.2782 12.8653 13.2817 12.8612 13.2847C12.8571 13.2878 12.852 13.2927 12.8467 13.3015L12.0505 12.8245ZM12.6563 12.3753L12.4304 11.4752C12.5841 11.4366 12.7409 11.4174 12.8969 11.4174V12.3455V13.2736C12.8929 13.2736 12.888 13.2741 12.8823 13.2755L12.6563 12.3753ZM12.8969 12.3455L12.8979 11.4174C13.2132 11.4177 13.5138 11.498 13.7801 11.6373L13.3499 12.4596L12.9196 13.282C12.9108 13.2774 12.9045 13.2753 12.901 13.2744C12.8976 13.2736 12.8961 13.2736 12.896 13.2736L12.8969 12.3455ZM13.3499 12.4596L12.4228 12.4157C12.4388 12.0782 12.5406 11.7256 12.7578 11.4123L13.5204 11.9412L14.2831 12.4701C14.2858 12.4662 14.2783 12.474 14.2769 12.5035L13.3499 12.4596ZM13.5204 11.9412L12.7576 11.4125C13.3455 10.5644 14.4852 10.3662 15.3399 10.8791L14.8624 11.6749L14.3849 12.4707C14.3578 12.4545 14.3313 12.4519 14.3105 12.456C14.2902 12.4601 14.2846 12.4679 14.2832 12.4699L13.5204 11.9412ZM14.8624 11.6749L15.3398 10.879L19.14 13.1585L18.6626 13.9544L18.1852 14.7503L14.385 12.4708L14.8624 11.6749ZM18.6626 13.9544L17.8512 14.4049L17.3613 13.5226L18.1728 13.0721L18.9842 12.6216L19.474 13.5039L18.6626 13.9544ZM18.1728 13.0721L17.3623 13.5243C17.0117 12.896 17.0257 12.126 17.395 11.5101L18.191 11.9875L18.9869 12.4648C18.9577 12.5135 18.9579 12.5745 18.9832 12.6199L18.1728 13.0721ZM18.191 11.9875L17.3953 11.5097C17.5763 11.2083 17.8334 10.9602 18.1386 10.789L18.5926 11.5985L19.0465 12.408C19.0202 12.4227 18.9998 12.4433 18.9866 12.4652L18.191 11.9875ZM18.5926 11.5985L18.1431 10.7865C18.4208 10.6328 18.7237 10.5592 19.0221 10.5592V11.4873V12.4154C19.0252 12.4154 19.0289 12.415 19.0328 12.414C19.0369 12.413 19.0401 12.4116 19.0421 12.4105L18.5926 11.5985ZM19.0221 11.4873L19.0225 10.5592C19.6568 10.5595 20.2796 10.8941 20.6122 11.4951L19.8002 11.9445L18.9882 12.394C18.9897 12.3966 18.9921 12.4001 18.9955 12.4035C18.9988 12.4068 19.0021 12.4093 19.0051 12.411C19.0103 12.414 19.0156 12.4154 19.0216 12.4154L19.0221 11.4873ZM19.8002 11.9445L20.6117 11.4941C21.1758 12.5106 22.238 14.4233 22.3118 14.5552L21.5018 15.0082L20.6918 15.4613C20.616 15.3259 19.5515 13.409 18.9887 12.3949L19.8002 11.9445ZM21.5018 15.0082L22.2664 14.4822C22.2795 14.5013 22.3253 14.567 22.3661 14.625L21.6069 15.1588L20.8477 15.6926C20.8061 15.6335 20.7558 15.5614 20.7371 15.5343L21.5018 15.0082ZM21.6069 15.1588L22.3654 14.624C22.3846 14.6512 22.4096 14.6833 22.4466 14.7279L21.7322 15.3203L21.0177 15.9127C20.9671 15.8517 20.9076 15.7775 20.8484 15.6936L21.6069 15.1588ZM21.7322 15.3203L22.4481 14.7297C23.646 16.1819 23.7944 18.1159 22.8263 19.7293L22.0305 19.2517L21.2347 18.7742C21.7966 17.8378 21.7161 16.7592 21.0162 15.9109L21.7322 15.3203ZM22.0305 19.2517L21.731 18.3733L21.731 18.3733L22.0305 19.2517L22.33 20.1302L22.3299 20.1302L22.0305 19.2517ZM21.3281 15.6541L20.6126 16.2451C20.5539 16.1741 20.4852 16.0883 20.4184 15.9929L21.1783 15.4601L21.9381 14.9272C21.9644 14.9647 21.9981 15.0078 22.0437 15.063L21.3281 15.6541ZM21.1783 15.4601L20.4196 15.9947C20.3612 15.9118 20.2984 15.8238 20.2567 15.7548C20.2288 15.7086 20.1915 15.6412 20.16 15.5553C20.1293 15.4717 20.1157 15.4001 20.1127 15.3853L21.0223 15.2011L21.9319 15.0169C21.9343 15.0285 21.9251 14.9772 21.9025 14.9157C21.8791 14.8519 21.8535 14.8082 21.8456 14.7951C21.8418 14.7889 21.8404 14.7868 21.8433 14.7912C21.8461 14.7954 21.851 14.8028 21.8593 14.8148C21.8766 14.8399 21.9004 14.8737 21.9369 14.9254L21.1783 15.4601ZM21.0223 15.2011L20.228 15.6812C20.0507 15.3878 19.6334 14.6361 18.5304 12.649L19.3419 12.1986L20.1534 11.7481C21.2718 13.7632 21.6626 14.4663 21.8166 14.721L21.0223 15.2011ZM19.3419 12.1986L18.5303 12.6487C18.6805 12.9197 19.0226 13.0194 19.2956 12.8685L18.8468 12.0562L18.3979 11.2439C19.0235 10.8982 19.8084 11.1262 20.1535 11.7484L19.3419 12.1986ZM18.8468 12.0562L19.3 12.8661C19.3545 12.8356 19.403 12.7887 19.4355 12.7345L18.6395 12.2573L17.8435 11.78C17.9777 11.5563 18.1656 11.3739 18.3936 11.2463L18.8468 12.0562ZM18.6395 12.2573L19.4354 12.7347C19.5019 12.6239 19.5064 12.4837 19.4402 12.3652L18.6298 12.8176L17.8195 13.2701C17.5588 12.8032 17.5712 12.2341 17.8436 11.7799L18.6395 12.2573ZM18.6298 12.8176L19.4413 12.3673L20.4053 14.1041L19.5938 14.5545L18.7823 15.0049L17.8183 13.268L18.6298 12.8176ZM19.5938 14.5545L20.4051 14.1039C20.6664 14.5744 20.5796 15.1621 20.1923 15.5368L19.547 14.8697L18.9018 14.2026C18.6847 14.4126 18.6362 14.7419 18.7824 15.0051L19.5938 14.5545ZM19.547 14.8697L20.1936 15.5355C19.8031 15.9146 19.2128 15.9754 18.7557 15.7036L19.2302 14.9059L19.7047 14.1083C19.4516 13.9578 19.121 13.9897 18.9005 14.2038L19.547 14.8697ZM19.2302 14.9059L18.7528 15.7018L14.1154 12.9198L14.5929 12.1239L15.0703 11.3281L19.7077 14.1101L19.2302 14.9059ZM14.5929 12.1239L14.1157 12.92C14.2062 12.9742 14.3085 12.9901 14.4045 12.9729C14.5004 12.9557 14.6242 12.8975 14.714 12.7678L13.951 12.2394L13.188 11.711C13.6347 11.0659 14.4841 10.9767 15.07 11.3279L14.5929 12.1239ZM13.951 12.2394L14.7138 12.768C14.7863 12.6635 14.8143 12.5236 14.7817 12.3923L13.881 12.6161L12.9803 12.8398C12.8827 12.4471 12.9603 12.0396 13.1882 11.7108L13.951 12.2394ZM13.881 12.6161L14.7814 12.391C14.751 12.2694 14.6724 12.1657 14.5692 12.1038L14.0919 12.8998L13.6145 13.6957C13.2991 13.5066 13.0707 13.2015 12.9806 12.8412L13.881 12.6161ZM14.0919 12.8998L14.507 12.0697C14.5908 12.1116 14.6525 12.1584 14.6916 12.1914C14.7108 12.2077 14.7256 12.2216 14.7346 12.2302C14.7392 12.2346 14.7428 12.2382 14.745 12.2404C14.7462 12.2415 14.7471 12.2424 14.7476 12.2429C14.7479 12.2432 14.7481 12.2435 14.7483 12.2436C14.7483 12.2437 14.7484 12.2437 14.7484 12.2438C14.7485 12.2438 14.7485 12.2438 14.7485 12.2438C14.7485 12.2438 14.7485 12.2438 14.7485 12.2438C14.7485 12.2438 14.7485 12.2438 14.7485 12.2438C14.7488 12.2441 14.7471 12.2424 14.7451 12.2405C14.7429 12.2383 14.7393 12.2347 14.7348 12.2304C14.7259 12.2219 14.7111 12.208 14.692 12.1918C14.653 12.1589 14.5915 12.1122 14.5078 12.0704L14.0927 12.9004L13.6775 13.7305C13.5937 13.6886 13.532 13.6418 13.493 13.6088C13.4738 13.5925 13.4589 13.5786 13.4499 13.57C13.4454 13.5656 13.4417 13.5621 13.4395 13.5599C13.4384 13.5587 13.4375 13.5578 13.4369 13.5573C13.4366 13.557 13.4364 13.5568 13.4363 13.5566C13.4362 13.5566 13.4361 13.5565 13.4361 13.5565C13.4361 13.5565 13.4361 13.5564 13.4361 13.5564C13.4361 13.5564 13.4361 13.5564 13.4361 13.5564C13.4361 13.5564 13.4361 13.5564 13.4361 13.5564C13.4358 13.5561 13.4374 13.5578 13.4394 13.5598C13.4416 13.5619 13.4452 13.5655 13.4498 13.5698C13.4587 13.5784 13.4735 13.5922 13.4926 13.6084C13.5315 13.6414 13.5931 13.688 13.6767 13.7299L14.0919 12.8998ZM14.0927 12.9004L14.5701 12.1046L17.6022 13.9236L17.1248 14.7194L16.6473 15.5153L13.6152 13.6963L14.0927 12.9004ZM17.1248 14.7194L17.6026 13.9238C18.166 14.2621 18.3483 14.9927 18.0104 15.5561L17.2145 15.0788L16.4185 14.6014C16.2296 14.9165 16.3315 15.3257 16.647 15.5151L17.1248 14.7194ZM17.2145 15.0788L18.0098 15.557C17.6723 16.1183 16.9426 16.3034 16.3775 15.9642L16.8552 15.1685L17.3328 14.3727C17.0163 14.1827 16.6077 14.2868 16.4191 14.6005L17.2145 15.0788ZM16.8552 15.1685L16.3777 15.9643L12.6553 13.7313L13.1327 12.9354L13.6101 12.1395L17.3326 14.3726L16.8552 15.1685ZM13.1327 12.9354L12.6555 13.7314C12.7598 13.7939 12.8884 13.814 13.0096 13.7835L12.7834 12.8834L12.5571 11.9833C12.9172 11.8928 13.2943 11.9502 13.6098 12.1393L13.1327 12.9354ZM12.7834 12.8834L13.0079 13.7839C13.1284 13.7539 13.2332 13.6755 13.296 13.5705L12.4995 13.0941L11.703 12.6177C11.8928 12.3005 12.1989 12.0726 12.5589 11.9829L12.7834 12.8834ZM12.4995 13.0941L13.2948 13.5725C13.3585 13.4666 13.3771 13.3384 13.348 13.2207L12.447 13.4434L11.5461 13.6662C11.4579 13.3097 11.5132 12.9332 11.7042 12.6157L12.4995 13.0941ZM12.447 13.4434L13.3474 13.2183C13.3172 13.0974 13.2391 12.9938 13.1356 12.9317L12.6578 13.7273L12.1799 14.5229C11.8645 14.3335 11.6366 14.0282 11.5467 13.6685L12.447 13.4434ZM12.6578 13.7273L13.1351 12.9314L13.8595 13.3658L13.3821 14.1617L12.9048 14.9577L12.1804 14.5232L12.6578 13.7273ZM13.3821 14.1617L13.8596 13.3659L16.8575 15.1646L16.3801 15.9604L15.9026 16.7563L12.9046 14.9576L13.3821 14.1617ZM16.3801 15.9604L16.8579 15.1648C17.4213 15.5031 17.6036 16.2337 17.2657 16.7971L16.4698 16.3197L15.6739 15.8424C15.4849 16.1574 15.5868 16.5666 15.9023 16.7561L16.3801 15.9604ZM16.4698 16.3197L17.2651 16.798C16.9271 17.3602 16.1974 17.5434 15.6336 17.2056L16.1105 16.4094L16.5874 15.6132C16.2721 15.4244 15.8635 15.5269 15.6744 15.8415L16.4698 16.3197ZM16.1105 16.4094L15.633 17.2053L12.6003 15.3858L13.0778 14.5899L13.5552 13.7941L16.5879 15.6136L16.1105 16.4094ZM13.0778 14.5899L12.5994 15.3852C12.8222 15.5193 13.1081 15.4458 13.24 15.2262L12.4444 14.7483L11.6488 14.2705C12.0431 13.614 12.8971 13.3982 13.5561 13.7946L13.0778 14.5899ZM12.4444 14.7483L13.24 15.2262C13.3033 15.1208 13.3221 14.993 13.2929 14.875L12.3919 15.0978L11.491 15.3206C11.4028 14.9639 11.4583 14.5877 11.6488 14.2705L12.4444 14.7483ZM12.3919 15.0978L13.2923 14.8727C13.2619 14.751 13.1834 14.6478 13.0811 14.5863L12.6028 15.3817L12.1246 16.1771C11.8101 15.988 11.5817 15.6833 11.4916 15.3229L12.3919 15.0978ZM12.6028 15.3817L13.0803 14.5858L13.8238 15.0319L13.3464 15.8277L12.8689 16.6236L12.1254 16.1775L12.6028 15.3817ZM13.3464 15.8277L13.8239 15.0319L16.113 16.4053L15.6355 17.2012L15.158 17.997L12.8689 16.6236L13.3464 15.8277ZM15.6355 17.2012L16.1133 16.4055C16.6767 16.7439 16.859 17.4745 16.5212 18.0378L15.7252 17.5605L14.9293 17.0831C14.7403 17.3982 14.8423 17.8074 15.1577 17.9968L15.6355 17.2012ZM15.7252 17.5605L16.5206 18.0388C16.1836 18.5992 15.4538 18.7862 14.8875 18.4455L15.3659 17.6502L15.8444 16.8549C15.5267 16.6638 15.118 16.7694 14.9299 17.0822L15.7252 17.5605ZM15.3659 17.6502L14.8884 18.446L12.5993 17.0726L13.0768 16.2767L13.5543 15.4809L15.8434 16.8543L15.3659 17.6502ZM13.0768 16.2767L12.5996 17.0728C12.7042 17.1354 12.8328 17.155 12.9524 17.1251L12.7273 16.2248L12.5022 15.3244C12.8619 15.2345 13.2382 15.2914 13.5539 15.4807L13.0768 16.2767ZM12.7273 16.2248L12.9524 17.1251C13.0718 17.0953 13.1761 17.0179 13.2393 16.9127L12.4434 16.4352L11.6476 15.9577C11.8377 15.6408 12.144 15.4139 12.5022 15.3244L12.7273 16.2248ZM12.4434 16.4352L13.2396 16.9121C13.302 16.808 13.3213 16.6807 13.2918 16.5616L12.391 16.7846L11.4901 17.0077C11.4015 16.6501 11.458 16.2742 11.6473 15.9582L12.4434 16.4352ZM12.391 16.7846L13.2913 16.5595C13.2609 16.4379 13.1824 16.3346 13.0801 16.2731L12.6018 17.0685L12.1236 17.8639C11.8091 17.6748 11.5807 17.3702 11.4906 17.0097L12.391 16.7846ZM12.6018 17.0685L13.0793 16.2726L17.72 19.0565L17.2425 19.8524L16.7651 20.6483L12.1244 17.8644L12.6018 17.0685ZM17.2425 19.8524L17.72 19.0566C18.284 19.3949 18.9171 19.5026 19.5015 19.3834L19.687 20.2927L19.8726 21.2021C18.8111 21.4187 17.7072 21.2135 16.7651 20.6483L17.2425 19.8524ZM19.687 20.2927L19.5014 19.3834C20.0753 19.2662 20.5195 18.9482 20.7852 18.5052L21.5811 18.9826L22.377 19.46C21.8287 20.3742 20.9275 20.9867 19.8727 21.202L19.687 20.2927ZM21.5811 18.9826L20.7854 18.5049C21.24 17.7477 21.1793 16.9313 20.6127 16.2448L21.3284 15.654L22.0442 15.0632C23.1093 16.3536 23.2379 18.0259 22.3769 19.4602L21.5811 18.9826ZM21.3284 15.654L21.4204 16.5776L21.4201 16.5776L21.3281 15.6541L21.2362 14.7305L21.2365 14.7305L21.3284 15.654Z" fill="#4CAF4F" mask="url(#path-4-inside-2_0_2155)"/>
</svg>
