<svg width="30" height="23" viewBox="0 0 30 23" fill="none" xmlns="http://www.w3.org/2000/svg">
<path d="M4.69824 0.347656H24.5361C25.6898 0.347656 26.7965 0.806375 27.6123 1.62207C28.4281 2.43788 28.8867 3.54452 28.8867 4.69824V18.2715C28.8867 19.4253 28.4282 20.5318 27.6123 21.3477C26.7964 22.1635 25.6899 22.6221 24.5361 22.6221H4.69824C3.54452 22.622 2.43788 22.1635 1.62207 21.3477C0.806383 20.5318 0.347656 19.4252 0.347656 18.2715V4.69824C0.347716 3.54452 0.806259 2.43788 1.62207 1.62207C2.43788 0.806259 3.54452 0.347716 4.69824 0.347656ZM1.74023 18.2715C1.74023 19.0559 2.05183 19.8085 2.60645 20.3633C3.16118 20.918 3.91374 21.2304 4.69824 21.2305H24.5361C25.3207 21.2305 26.0731 20.9181 26.6279 20.3633C27.1827 19.8085 27.4951 19.0561 27.4951 18.2715V8.00488H1.74023V18.2715ZM19.8379 14.9658H22.9707C23.1552 14.9659 23.3324 15.0385 23.4629 15.1689C23.5933 15.2994 23.6659 15.4767 23.666 15.6611C23.666 15.8455 23.5932 16.0228 23.4629 16.1533C23.3324 16.2838 23.1552 16.3573 22.9707 16.3574H19.8379C19.6533 16.3574 19.4762 16.2838 19.3457 16.1533C19.2153 16.0228 19.1416 15.8456 19.1416 15.6611C19.1417 15.4767 19.2153 15.2994 19.3457 15.1689C19.4762 15.0385 19.6534 14.9658 19.8379 14.9658ZM4.69824 1.74023C3.91374 1.74029 3.16118 2.05171 2.60645 2.60645C2.05171 3.16118 1.74029 3.91374 1.74023 4.69824V6.6123H27.4951V4.69824C27.4951 3.91374 27.1827 3.16118 26.6279 2.60645C26.0732 2.05183 25.3206 1.74023 24.5361 1.74023H4.69824Z" fill="#4CAF4F" stroke="#4CAF4F" stroke-width="0.696069"/>
</svg>
